<svg version="1" xmlns="http://www.w3.org/2000/svg" width="376" height="376" viewBox="0 0 282.000000 282.000000"><path d="M161 30c-4.1 1-12.2 2.4-18 3-15.6 1.7-15 1.5-15 5.4v3.3l6.5.6c7.9.8 11.9 2.7 14.2 7 1.5 2.8 1.7 7.6 2 40.7.1 20.6 0 38.3-.3 39.2-.5 1.6-1 1.4-4.2-1.1-6.1-4.9-15.1-9.9-22.1-12.3-5.7-2-8.6-2.3-21.1-2.3-16.8 0-22.6 1.5-33.9 9C48.5 135.9 38 157.1 38 185c0 22.4 6.9 39 22.4 54.3 14.8 14.6 35.4 20 56 14.7 9.8-2.5 18-6.8 27.9-14.7l7.7-6.3.1 5.8c.1 6.4 1.3 15.9 2.1 16.7.3.3 4.7-.1 9.9-.9s14.5-1.8 20.7-2.2l11.2-.7v-7.5l-6.2-.4c-3.5-.2-7.6-1.1-9.3-1.9-6.3-3-6 2.7-6.3-110.7L173.9 28l-2.7.1c-1.5.1-6.1.9-10.2 1.9zm-37 96c7.7 2.5 18.5 8.7 23.2 13.3l3.4 3.2-.1 40v40l-3 3.9c-4 5.2-12.4 12-18.8 14.9-22.8 10.6-46 2.6-56.7-19.7-5.2-10.9-6.4-18-6.4-38.1s1.2-27.4 6.4-38.2c3.1-6.2 11.3-14.9 17.1-17.9 9.3-4.8 23.1-5.4 34.9-1.4zM233.5 222.4c-7.1 3.5-10.5 8.7-10.5 16.3.1 16.7 20.6 23.5 31.2 10.3 5.8-7.3 4.2-18.5-3.5-24.4-4.4-3.4-12.6-4.4-17.2-2.2z"/></svg>